<svg viewBox = "0 0 357 120" width="357" height="120" xmlns="http://www.w3.org/2000/svg"><g transform="matrix(1 0 0 1 178.5 60)"  ><g style=""   ><g transform="matrix(1 0 0 1 -109.62 16.5)"  ><path style="stroke: none; stroke-width: 1; stroke-dasharray: none; stroke-linecap: butt; stroke-dashoffset: 0; stroke-linejoin: miter; stroke-miterlimit: 4; fill: rgb(81,19,215); fill-rule: nonzero; opacity: 1;"  transform=" translate(-68.88, -76.5)" d="M 119.981 50.6675 C 122.728 45.343 118.863 39 112.872 39 L 54.1058 39 C 51.0646 39 48.2863 40.7244 46.9367 43.4498 L 17.7197 102.45 C 15.0865 107.767 18.9552 114 24.8888 114 L 82.4373 114 C 85.4312 114 88.1745 112.328 89.5471 109.668 L 119.981 50.6675 Z" stroke-linecap="round" /></g><g transform="matrix(1 0 0 1 -121.62 -16.5)"  ><path style="stroke: none; stroke-width: 1; stroke-dasharray: none; stroke-linecap: butt; stroke-dashoffset: 0; stroke-linejoin: miter; stroke-miterlimit: 4; fill: rgb(109,49,237); fill-rule: nonzero; opacity: 0.9;"  transform=" translate(-56.88, -43.5)" d="M 107.981 17.6675 C 110.728 12.343 106.863 6 100.872 6 L 42.1058 6 C 39.0646 6 36.2863 7.72443 34.9367 10.4498 L 5.71968 69.4498 C 3.0865 74.7672 6.95518 81 12.8888 81 L 70.4373 81 C 73.4312 81 76.1745 79.3283 77.5471 76.6675 L 107.981 17.6675 Z" stroke-linecap="round" /></g><g transform="matrix(1 0 0 1 72.98 0.44)"  ><path style="stroke: none; stroke-width: 1; stroke-dasharray: none; stroke-linecap: butt; stroke-dashoffset: 0; stroke-linejoin: miter; stroke-miterlimit: 4; fill: #FFF; fill-rule: nonzero; opacity: 1;"  transform=" translate(-251.48, -60.44)" d="M 192.24 49.44 C 192.24 52.4267 191.52 55.2267 190.08 57.84 C 188.693 60.4533 186.48 62.56 183.44 64.16 C 180.453 65.76 176.667 66.56 172.08 66.56 L 162.72 66.56 L 162.72 88 L 151.52 88 L 151.52 32.16 L 172.08 32.16 C 176.4 32.16 180.08 32.9067 183.12 34.4 C 186.16 35.8933 188.427 37.9467 189.92 40.56 C 191.467 43.1733 192.24 46.1333 192.24 49.44 Z M 171.6 57.52 C 174.693 57.52 176.987 56.8267 178.48 55.44 C 179.973 54 180.72 52 180.72 49.44 C 180.72 44 177.68 41.28 171.6 41.28 L 162.72 41.28 L 162.72 57.52 L 171.6 57.52 Z M 218.272 88.72 C 214.005 88.72 210.165 87.7867 206.752 85.92 C 203.339 84 200.645 81.3067 198.672 77.84 C 196.752 74.3733 195.792 70.3733 195.792 65.84 C 195.792 61.3067 196.779 57.3067 198.752 53.84 C 200.779 50.3733 203.525 47.7067 206.992 45.84 C 210.459 43.92 214.325 42.96 218.592 42.96 C 222.859 42.96 226.725 43.92 230.192 45.84 C 233.659 47.7067 236.379 50.3733 238.352 53.84 C 240.379 57.3067 241.392 61.3067 241.392 65.84 C 241.392 70.3733 240.352 74.3733 238.272 77.84 C 236.245 81.3067 233.472 84 229.952 85.92 C 226.485 87.7867 222.592 88.72 218.272 88.72 Z M 218.272 78.96 C 220.299 78.96 222.192 78.48 223.952 77.52 C 225.765 76.5067 227.205 75.0133 228.272 73.04 C 229.339 71.0667 229.872 68.6667 229.872 65.84 C 229.872 61.6267 228.752 58.4 226.512 56.16 C 224.325 53.8667 221.632 52.72 218.432 52.72 C 215.232 52.72 212.539 53.8667 210.352 56.16 C 208.219 58.4 207.152 61.6267 207.152 65.84 C 207.152 70.0533 208.192 73.3067 210.272 75.6 C 212.405 77.84 215.072 78.96 218.272 78.96 Z M 259.208 50.56 C 260.648 48.2133 262.514 46.3733 264.808 45.04 C 267.154 43.7067 269.821 43.04 272.808 43.04 L 272.808 54.8 L 269.848 54.8 C 266.328 54.8 263.661 55.6267 261.848 57.28 C 260.088 58.9333 259.208 61.8133 259.208 65.92 L 259.208 88 L 248.008 88 L 248.008 43.68 L 259.208 43.68 L 259.208 50.56 Z M 291.791 52.88 L 291.791 74.32 C 291.791 75.8133 292.138 76.9067 292.831 77.6 C 293.578 78.24 294.805 78.56 296.511 78.56 L 301.711 78.56 L 301.711 88 L 294.671 88 C 285.231 88 280.511 83.4133 280.511 74.24 L 280.511 52.88 L 275.231 52.88 L 275.231 43.68 L 280.511 43.68 L 280.511 32.72 L 291.791 32.72 L 291.791 43.68 L 301.711 43.68 L 301.711 52.88 L 291.791 52.88 Z M 305.287 65.68 C 305.287 61.2 306.167 57.2267 307.927 53.76 C 309.74 50.2933 312.167 47.6267 315.207 45.76 C 318.3 43.8933 321.74 42.96 325.527 42.96 C 328.834 42.96 331.714 43.6267 334.167 44.96 C 336.674 46.2933 338.674 47.9733 340.167 50 L 340.167 43.68 L 351.447 43.68 L 351.447 88 L 340.167 88 L 340.167 81.52 C 338.727 83.6 336.727 85.3333 334.167 86.72 C 331.66 88.0533 328.754 88.72 325.447 88.72 C 321.714 88.72 318.3 87.76 315.207 85.84 C 312.167 83.92 309.74 81.2267 307.927 77.76 C 306.167 74.24 305.287 70.2133 305.287 65.68 Z M 340.167 65.84 C 340.167 63.12 339.634 60.8 338.567 58.88 C 337.5 56.9067 336.06 55.4133 334.247 54.4 C 332.434 53.3333 330.487 52.8 328.407 52.8 C 326.327 52.8 324.407 53.3067 322.647 54.32 C 320.887 55.3333 319.447 56.8267 318.327 58.8 C 317.26 60.72 316.727 63.0133 316.727 65.68 C 316.727 68.3467 317.26 70.6933 318.327 72.72 C 319.447 74.6933 320.887 76.2133 322.647 77.28 C 324.46 78.3467 326.38 78.88 328.407 78.88 C 330.487 78.88 332.434 78.3733 334.247 77.36 C 336.06 76.2933 337.5 74.8 338.567 72.88 C 339.634 70.9067 340.167 68.56 340.167 65.84 Z" stroke-linecap="round" /></g></g></g></svg>