<?xml version="1.0" standalone="no"?>
<!DOCTYPE svg PUBLIC "-//W3C//DTD SVG 20010904//EN"
 "http://www.w3.org/TR/2001/REC-SVG-20010904/DTD/svg10.dtd">
<svg version="1.0" xmlns="http://www.w3.org/2000/svg"
 width="1089.000000pt" height="191.000000pt" viewBox="0 0 1089.000000 191.000000"
 preserveAspectRatio="xMidYMid meet">

<g transform="translate(0.000000,191.000000) scale(0.100000,-0.100000)"
fill="#30459EFF" stroke="none">
<path d="M5359 1657 c-110 -58 -119 -204 -17 -280 36 -27 116 -34 156 -13 130
67 129 237 -2 297 -54 25 -84 24 -137 -4z"/>
<path d="M7225 1618 c-62 -33 -176 -74 -260 -94 -24 -6 -26 -8 -10 -12 59 -13
95 -89 95 -202 0 -55 -2 -61 -17 -55 -100 43 -181 44 -272 4 -56 -23 -128 -94
-159 -155 -96 -190 -71 -494 54 -633 56 -62 113 -86 184 -78 89 11 104 27 157
162 l48 120 3 -132 3 -133 144 0 143 0 -16 33 c-15 28 -18 96 -22 622 l-5 590
-70 -37z m-177 -722 c2 -165 2 -170 -22 -207 -35 -52 -101 -77 -153 -58 -45
18 -71 64 -79 145 -12 116 31 227 109 275 24 14 46 19 87 17 l55 -3 3 -169z"/>
<path d="M1635 1617 c-77 -39 -198 -83 -255 -92 l-45 -8 34 -11 c46 -15 69
-50 81 -121 5 -33 10 -218 10 -411 0 -384 4 -415 59 -491 45 -62 107 -88 211
-88 87 0 166 21 190 50 9 11 7 36 -10 109 l-22 95 -24 -16 c-36 -23 -101 -20
-127 6 -22 21 -22 26 -27 510 -3 269 -7 492 -10 494 -3 3 -32 -9 -65 -26z"/>
<path d="M9840 1604 c-47 -24 -114 -50 -150 -59 -36 -9 -74 -21 -85 -25 -19
-8 -19 -9 2 -9 25 -1 70 -51 81 -89 4 -15 7 -232 7 -482 0 -407 -2 -459 -17
-493 l-17 -37 228 0 c178 0 239 3 281 16 172 51 280 222 280 444 0 235 -117
403 -288 417 -85 6 -96 -4 -155 -141 l-52 -120 -3 312 c-2 241 -5 312 -15 310
-6 -1 -50 -21 -97 -44z m295 -567 c39 -39 55 -89 55 -178 0 -123 -68 -211
-164 -213 -78 -1 -76 -5 -76 166 0 128 3 160 19 194 23 50 43 63 95 64 30 0
45 -7 71 -33z"/>
<path d="M407 1573 c17 -25 18 -67 18 -568 0 -501 -1 -543 -18 -568 l-17 -27
302 0 c324 0 396 8 487 52 63 30 128 92 159 153 23 43 27 62 27 140 0 79 -4
97 -29 148 -32 66 -86 112 -153 128 l-42 11 47 32 c67 47 112 135 112 220 0
108 -43 191 -127 244 -91 58 -124 62 -470 62 l-313 0 17 -27z m547 -217 c44
-18 66 -52 66 -101 0 -88 -47 -115 -200 -115 l-110 0 0 115 0 115 105 0 c68 0
118 -5 139 -14z m56 -452 c22 -9 50 -29 61 -45 25 -36 27 -104 5 -148 -28 -54
-64 -65 -223 -69 l-143 -4 0 141 0 141 130 0 c96 0 140 -4 170 -16z"/>
<path d="M4041 1563 c18 -35 19 -66 19 -555 0 -438 -2 -524 -15 -555 -8 -19
-15 -37 -15 -39 0 -2 78 -4 174 -4 l174 0 -16 33 c-15 27 -17 75 -20 337 -1
213 1 300 8 288 6 -10 63 -142 126 -295 64 -153 121 -288 128 -300 10 -20 25
10 141 288 71 171 133 313 138 316 6 3 7 -116 5 -293 -3 -249 -7 -305 -21
-337 l-16 -37 175 0 175 0 -18 33 c-17 29 -18 73 -18 562 0 489 1 533 18 563
l18 32 -158 0 -158 0 -134 -311 c-74 -170 -137 -306 -142 -302 -4 4 -66 143
-138 308 l-130 300 -160 3 -159 2 19 -37z"/>
<path d="M7787 1558 c17 -30 18 -74 18 -553 0 -468 -2 -524 -17 -558 l-17 -37
174 0 174 0 -17 37 c-13 31 -17 79 -20 246 l-4 207 167 0 168 0 -5 -207 c-4
-160 -9 -217 -21 -246 l-16 -37 175 0 175 0 -18 33 c-17 29 -18 73 -18 557 0
471 2 528 17 558 l16 32 -173 0 -174 0 16 -37 c12 -29 17 -84 21 -235 l5 -198
-168 0 -167 0 4 203 c3 168 7 207 21 235 l18 32 -176 0 -176 0 18 -32z"/>
<path d="M3180 1280 c-225 -47 -360 -265 -322 -522 21 -147 92 -258 199 -315
177 -94 400 -58 517 83 l28 35 -59 62 c-32 34 -66 72 -74 84 l-16 23 -40 -39
c-86 -82 -217 -71 -273 22 -39 63 -35 65 118 69 161 4 216 23 281 93 112 121
60 306 -108 383 -62 29 -172 38 -251 22z m155 -240 c39 -43 12 -130 -56 -180
-37 -27 -136 -70 -159 -70 -13 0 -13 85 0 132 29 103 162 176 215 118z"/>
<path d="M6110 1276 c-31 -11 -42 -26 -100 -136 l-65 -125 -3 133 c-1 72 -4
132 -6 132 -2 0 -46 -20 -97 -44 -52 -25 -123 -52 -159 -62 -100 -25 -98 -24
-62 -39 24 -10 39 -27 53 -60 19 -43 20 -63 17 -328 -3 -251 -5 -286 -21 -310
l-17 -27 164 0 165 0 -17 38 c-13 30 -17 81 -20 273 -4 222 -3 239 17 276 26
52 64 76 120 76 37 0 49 -5 72 -31 37 -41 43 -96 37 -351 -4 -167 -8 -214 -21
-241 -9 -18 -17 -35 -17 -37 0 -1 72 -3 160 -3 88 0 160 2 160 4 0 2 -7 20
-15 39 -12 29 -15 89 -15 305 0 264 -8 360 -35 412 -49 95 -186 144 -295 106z"/>
<path d="M8985 1249 c-62 -34 -169 -73 -260 -95 -26 -7 -27 -8 -8 -11 34 -6
70 -49 82 -98 6 -25 11 -130 11 -243 0 -217 8 -267 55 -328 54 -70 180 -104
268 -70 40 15 45 22 104 138 l62 123 0 -70 c1 -38 6 -87 11 -107 14 -48 56
-98 82 -98 12 0 66 25 122 55 139 75 134 70 100 86 -61 29 -64 49 -64 417 0
182 -2 332 -4 332 -2 0 -46 -20 -97 -44 -52 -25 -123 -52 -159 -62 -100 -25
-98 -24 -63 -39 58 -25 68 -59 71 -255 3 -169 3 -176 -20 -210 -13 -19 -41
-43 -62 -54 -32 -16 -44 -17 -77 -7 -72 22 -73 26 -79 371 l-5 307 -70 -38z"/>
<path d="M2150 1240 c-68 -35 -158 -68 -234 -85 l-29 -6 34 -17 c65 -32 73
-66 79 -337 4 -145 11 -251 18 -267 23 -56 82 -107 140 -124 59 -17 143 -15
181 6 12 6 49 65 84 133 l62 122 5 -95 c6 -104 25 -154 65 -172 30 -14 55 -5
180 65 l100 56 -34 12 c-58 21 -61 38 -61 414 0 184 -3 335 -6 335 -3 0 -42
-18 -87 -39 -75 -36 -164 -68 -242 -87 -24 -6 -26 -8 -10 -12 27 -6 53 -30 73
-67 13 -23 17 -67 20 -191 4 -147 2 -164 -16 -201 -34 -66 -97 -94 -156 -69
-65 27 -66 33 -66 311 0 242 -6 356 -19 354 -3 0 -40 -18 -81 -39z"/>
<path d="M5445 1235 c-49 -24 -119 -52 -155 -61 -100 -25 -98 -24 -62 -39 24
-10 39 -27 53 -60 19 -43 20 -63 17 -328 -3 -251 -5 -286 -21 -310 l-17 -27
164 0 165 0 -17 38 c-15 32 -17 86 -20 435 -2 218 -6 397 -10 396 -4 0 -47
-20 -97 -44z"/>
</g>
</svg>
