<?xml version="1.0" standalone="no"?>
<!DOCTYPE svg PUBLIC "-//W3C//DTD SVG 20010904//EN"
 "http://www.w3.org/TR/2001/REC-SVG-20010904/DTD/svg10.dtd">
<svg version="1.0" xmlns="http://www.w3.org/2000/svg"
 width="500.000000pt" height="500.000000pt" viewBox="0 0 500.000000 500.000000"
 preserveAspectRatio="xMidYMid meet">

<g transform="translate(0.000000,500.000000) scale(0.100000,-0.100000)"
fill="#30459EFF" stroke="none">
<path d="M268 3728 c9 -69 9 -1433 0 -1520 l-7 -68 442 0 c494 0 529 4 654 65
129 64 205 163 223 293 9 69 -3 158 -32 219 -46 97 -166 183 -286 205 -115 21
-113 19 -37 42 237 75 340 180 352 362 11 157 -46 282 -165 361 -126 84 -189
93 -724 93 l-427 0 7 -52z m695 12 c139 -14 211 -43 278 -109 73 -73 93 -130
94 -261 0 -130 -21 -187 -94 -260 -56 -55 -82 -70 -291 -168 -150 -70 -230
-134 -256 -207 -5 -12 10 -3 35 23 75 76 207 120 324 108 217 -22 340 -231
248 -421 -82 -172 -285 -260 -623 -272 l-158 -6 0 785 c0 432 3 788 7 791 10
10 335 8 436 -3z"/>
<path d="M1916 3713 c-8 -38 -29 -144 -46 -238 -91 -502 -225 -1171 -250
-1247 l-28 -88 75 0 c73 0 75 1 70 23 -16 63 -29 221 -23 292 4 67 61 370 209
1122 12 62 24 113 27 113 3 0 72 -217 154 -483 228 -734 323 -1022 337 -1022
8 0 80 217 194 580 99 319 205 658 235 752 51 159 70 202 70 155 0 -10 59
-322 131 -693 72 -371 133 -711 136 -756 l6 -83 287 0 287 0 -9 43 c-5 23 -12
206 -15 406 l-5 364 308 -9 c170 -5 353 -9 407 -9 l99 0 -5 -365 c-3 -201 -9
-380 -12 -397 l-7 -33 141 0 141 0 -8 78 c-9 100 -9 1384 0 1485 l8 77 -141 0
-141 0 7 -27 c4 -16 9 -199 12 -407 l5 -379 -293 6 c-162 4 -345 7 -408 7
l-113 0 6 353 c3 193 9 373 12 400 l6 47 -133 0 -134 0 0 -804 c0 -566 -3
-808 -11 -816 -22 -22 -63 164 -239 1070 -47 245 -90 469 -96 498 l-10 52
-119 0 -119 0 -50 -157 c-64 -204 -301 -968 -313 -1011 -5 -19 -11 -32 -13
-30 -2 2 -83 257 -180 568 -97 311 -181 580 -186 598 l-11 32 -118 0 -118 0
-16 -67z"/>
<path d="M2516 1998 c-9 -12 -16 -30 -16 -39 0 -38 70 -65 98 -37 17 17 15 64
-4 82 -22 23 -60 20 -78 -6z"/>
<path d="M870 1990 c-19 -11 -43 -19 -53 -20 -17 0 -17 -2 -3 -22 13 -18 16
-52 16 -166 0 -155 10 -194 52 -208 32 -10 88 -7 103 6 19 16 3 66 -19 62 -41
-8 -46 12 -46 194 0 96 -3 174 -7 174 -5 -1 -24 -9 -43 -20z"/>
<path d="M3285 1985 c-49 -19 -50 -21 -38 -45 7 -14 13 -34 13 -46 0 -19 -4
-21 -47 -17 -56 6 -97 -19 -119 -73 -33 -78 -3 -216 49 -229 46 -12 71 -2 89
35 23 47 23 47 -19 46 -32 -1 -37 2 -44 29 -11 42 2 85 33 108 45 34 60 18 58
-61 -1 -37 -2 -88 -1 -114 l1 -48 51 0 c38 0 48 3 42 13 -4 6 -10 104 -13 217
l-5 205 -50 -20z"/>
<path d="M4495 1989 c-22 -10 -49 -18 -59 -18 -18 -1 -18 -2 -2 -20 15 -16 17
-41 14 -200 l-3 -181 78 0 c93 0 139 17 166 62 61 100 13 248 -80 248 -16 0
-29 -2 -29 -4 0 -2 -7 -20 -15 -41 -15 -35 -15 -36 2 -31 31 10 63 -29 63 -77
0 -35 -37 -79 -64 -75 -20 3 -21 8 -23 168 -2 91 -4 170 -5 176 -2 7 -17 5
-43 -7z"/>
<path d="M395 1781 l0 -211 105 0 c58 0 122 5 142 10 53 15 88 61 88 114 0 46
-29 96 -56 96 -19 0 -18 5 11 34 35 36 34 86 -4 128 l-29 33 -129 3 -128 3 0
-210z m209 107 c19 -30 -4 -53 -58 -56 l-46 -3 0 41 0 41 46 -3 c31 -2 51 -9
58 -20z m20 -154 c41 -40 1 -84 -76 -84 l-48 0 0 50 0 50 54 0 c36 0 60 -5 70
-16z"/>
<path d="M2005 1780 l0 -210 57 0 58 0 -10 26 c-12 31 -13 222 -2 209 7 -9 52
-113 84 -195 9 -23 14 -15 59 90 l49 115 -2 -123 -3 -122 55 0 55 0 0 210 0
211 -54 -3 -54 -3 -46 -107 c-25 -60 -48 -105 -51 -100 -4 4 -26 53 -51 110
l-43 102 -51 0 -50 0 0 -210z"/>
<path d="M3645 1780 l0 -210 55 0 55 0 -4 91 -3 90 58 -3 59 -3 -1 -87 -1 -88
51 0 51 0 0 210 0 210 -51 0 -51 0 1 -82 1 -83 -58 -3 -58 -3 3 86 3 85 -55 0
-55 0 0 -210z"/>
<path d="M1125 1859 c-22 -10 -49 -19 -60 -19 -14 0 -16 -3 -7 -8 20 -13 32
-70 32 -149 0 -89 17 -113 80 -113 36 0 41 3 60 40 l20 40 -29 -6 c-18 -4 -32
-1 -37 7 -5 8 -11 62 -14 120 l-5 106 -40 -18z"/>
<path d="M1305 1859 c-22 -10 -48 -19 -58 -19 -16 0 -16 -2 -2 -23 11 -17 15
-48 14 -114 -1 -128 15 -152 81 -118 32 16 36 25 20 41 -5 5 -11 64 -12 130
l-3 120 -40 -17z"/>
<path d="M1531 1862 c-72 -36 -99 -121 -66 -208 22 -58 62 -84 130 -84 47 0
116 28 115 47 -1 5 -12 21 -25 38 -23 28 -25 28 -43 12 -26 -23 -58 -21 -84 6
l-23 22 58 6 c76 8 111 34 115 83 5 53 -40 96 -100 96 -24 0 -58 -8 -77 -18z
m97 -84 c4 -21 -44 -68 -69 -68 -26 0 -25 40 2 69 24 25 62 25 67 -1z"/>
<path d="M2555 1859 c-22 -10 -49 -19 -59 -19 -18 0 -18 -1 -2 -19 15 -16 17
-36 14 -135 l-3 -116 50 0 50 0 -3 122 c-1 68 -3 137 -5 154 l-2 31 -40 -18z"/>
<path d="M2755 1859 c-22 -10 -49 -19 -59 -19 -18 0 -18 -1 -2 -19 15 -16 17
-36 14 -135 l-3 -116 50 0 50 0 -3 152 c-1 83 -3 152 -5 153 -1 1 -20 -6 -42
-16z"/>
<path d="M2854 1872 c-11 -7 -44 -65 -44 -78 0 -3 7 -1 15 6 20 17 54 3 61
-26 4 -14 4 -65 2 -114 l-4 -90 52 0 53 0 -10 32 c-5 18 -9 79 -9 135 0 98 -1
102 -26 122 -27 21 -69 27 -90 13z"/>
<path d="M4115 1859 c-22 -10 -49 -19 -59 -19 -17 0 -18 -1 -3 -17 11 -13 16
-45 19 -114 4 -118 17 -139 84 -139 41 0 45 3 64 40 25 49 25 53 0 38 -15 -10
-25 -10 -38 -2 -14 9 -18 31 -22 121 l-5 110 -40 -18z"/>
<path d="M4290 1858 c-19 -9 -43 -17 -52 -18 -15 0 -15 -3 -3 -27 10 -19 15
-58 14 -118 0 -49 3 -98 6 -107 9 -23 37 -23 75 0 23 15 27 21 17 31 -7 7 -14
58 -17 134 l-5 122 -35 -17z"/>
</g>
</svg>
